<svg width="36" height="36" viewBox="0 0 36 36" fill="none" xmlns="http://www.w3.org/2000/svg">
<circle cx="18" cy="18" r="17" fill="#FFC96B" stroke="white" stroke-width="2"/>
<path d="M9.69432 22.8H13.0781C16.0107 22.8 17.7334 20.9748 17.7334 17.8713V17.8576C17.7334 14.7609 16.0039 12.9357 13.0781 12.9357H9.69432V22.8ZM10.9248 21.6926V14.0432H12.9961C15.1836 14.0432 16.4756 15.465 16.4756 17.8713V17.8849C16.4756 20.2844 15.1973 21.6926 12.9961 21.6926H10.9248ZM18.6016 22.8H19.8935L20.8848 19.9767H24.8086L25.7998 22.8H27.0918L23.4551 12.9357H22.2383L18.6016 22.8ZM22.792 14.5285H22.9014L24.4463 18.9308H21.2471L22.792 14.5285Z" fill="#3D2800"/>
</svg>
