<svg width="20" height="20" viewBox="0 0 20 20" fill="none" xmlns="http://www.w3.org/2000/svg">
<path fill-rule="evenodd" clip-rule="evenodd" d="M9.72977 9.46L10.5019 7.2C10.5019 7.2 9.98012 6.91 8.92864 6.91C6.2148 6.91 4.86389 8.71 4.86389 10.57C4.86389 12.78 7.08603 12.84 7.08603 14.18C7.08603 14.51 6.85571 14.95 6.2859 14.95C5.41367 14.95 4.38221 14.07 4.38221 14.07L3.85146 15.8C3.85146 15.8 4.86389 17.01 6.82666 17.01C8.46799 17.01 9.6797 15.79 9.6797 13.89C9.6797 11.47 6.97588 11.08 6.97588 10.04C6.97588 9.86 7.03696 9.11 8.23766 9.11C9.05882 9.11 9.72977 9.46 9.72977 9.46ZM7.38646 3.84C6.87573 3.98 6.50521 4.41 6.44513 4.93C6.40607 5.35 6.64541 5.78 7.14612 5.74C7.64682 5.7 8.04739 5.23 8.14753 4.77C8.25769 4.28 7.96728 3.73 7.38646 3.84ZM8.73837 1.14C8.41791 1.14 8.01735 1.689 7.89718 2.5L9.50045 2.11C9.30917 1.47 8.96869 1.14 8.73837 1.14ZM10.6711 2.04C10.9916 2.13 11.293 2.33 11.4822 2.62L13.1045 4.75C13.2648 4.98 13.3008 5.208 13.2848 5.53L13.0545 10.37L12.724 17.05L12.6249 19.01C12.6249 19.14 12.6138 19.27 12.5938 19.39C12.5047 19.88 12.0841 20.06 11.6234 19.98L6.2148 18.97L2.9602 18.36C2.44948 18.27 1.88868 18.21 1.38798 18.07C0.787126 17.899 1.04749 16.97 1.10858 16.52L1.46809 13.74L2.28925 7.51C2.32029 7.3 2.33932 7.09 2.36936 6.88C2.41943 6.6 2.5396 6.33 2.70984 6.1L4.39222 3.71C4.57348 3.43 4.86389 3.23 5.19336 3.16L6.40607 2.86L6.70549 2.79C6.79562 1.21 7.64682 0 8.74938 0C9.64966 0 10.4007 0.86 10.6711 2.04ZM13.017 2L16.8975 4.616C17.0657 4.773 17.1739 4.985 17.2079 5.214L18.9814 18.222C19.0305 18.417 18.9814 18.623 18.8452 18.771C18.715 18.923 18.5138 18.998 18.3175 18.972L14.7034 18.602L14.7685 17.243L15.1009 10.378L15.3523 5.17C15.3613 4.988 15.3022 4.809 15.1871 4.667L13.017 2Z" fill="#5C5F62"/>
</svg>
