<svg width="20" height="20" viewBox="0 0 20 20" fill="none" xmlns="http://www.w3.org/2000/svg">
<path d="M1.79112 2.2534L1.19409 5.83559C1.0925 6.44512 1.56254 6.99999 2.18048 6.99999H3.07297C3.64113 6.99999 4.16053 6.67898 4.41461 6.17081L5.00002 4.99999L5.58543 6.17081C5.83952 6.67898 6.35892 6.99999 6.92707 6.99999H8.07297C8.64113 6.99999 9.16053 6.67898 9.41461 6.17081L10 4.99999L10.5854 6.17081C10.8395 6.67898 11.3589 6.99999 11.9271 6.99999H13.073C13.6411 6.99999 14.1605 6.67898 14.4146 6.17081L15 4.99999L15.5854 6.17081C15.8395 6.67898 16.3589 6.99999 16.9271 6.99999H17.8196C18.4375 6.99999 18.9075 6.44512 18.806 5.83559L18.2089 2.2534C18.0884 1.53012 17.4626 1 16.7293 1H3.27071C2.53745 1 1.91167 1.53012 1.79112 2.2534Z" fill="#5C5F62"/>
<path d="M18 9H2.00002V17.5C2.00002 18.3284 2.6716 19 3.50002 19H7.00002V12H13V19H16.5C17.3285 19 18 18.3284 18 17.5V9Z" fill="#5C5F62"/>
</svg>
