<svg width="25" height="17" viewBox="0 0 25 17" fill="none" xmlns="http://www.w3.org/2000/svg">
<path d="M19.7695 3.05069C19.0676 2.19524 17.3688 0.43599 14.9766 0.0351964C14.0977 -0.107053 13.2035 0.188134 12.4996 0.807519C11.7969 0.224778 10.9023 -0.0742266 10.0195 0.0716708C6.90625 0.593763 4.94922 3.43664 4.86719 3.55963C4.56078 4.01302 4.65113 4.65047 5.06738 4.98341C5.22792 5.11195 5.42221 5.18118 5.62168 5.18092C5.91098 5.18092 6.19551 5.03778 6.37871 4.76604C6.39457 4.74217 7.94863 2.47961 10.3045 2.08433C10.5958 2.04357 10.8896 2.11275 11.1467 2.27447L8.875 4.79382C8.39062 5.31549 8.08984 5.97712 8.08984 6.7575C8.08984 7.49971 8.35594 8.19696 8.83828 8.72075C9.35547 9.24709 9.99609 9.49732 10.6797 9.49732C11.3633 9.49732 12.0055 9.20836 12.4887 8.68343L12.932 8.20205L17.7836 12.4814C17.8739 12.5609 17.8873 12.7041 17.8031 12.8194L16.7215 14.3357C16.6495 14.4311 16.5164 14.4457 16.442 14.3808L15.574 13.5881L14.5509 14.765C14.4594 14.8869 14.3422 14.9161 14.2812 14.9227C14.2165 14.9294 14.103 14.928 14.0151 14.8498L12.7491 13.6767L12.1367 14.2984L12.0269 14.423C11.7986 14.7265 11.4765 14.9175 11.1175 14.9574C10.7476 14.9918 10.4046 14.8831 10.1605 14.6697L6.65234 11.2235H3.75V3.10159H0V13.9421L2.5 13.9438C2.95859 13.9438 3.34258 13.6594 3.56016 13.2593H5.92891L8.93906 16.2137C9.51953 16.7286 10.2305 17 10.9688 17C11.0811 17 11.1946 16.9947 11.3069 16.9814C11.8389 16.9218 12.3385 16.7243 12.7705 16.4089L12.8059 16.4433C13.2759 16.8622 13.8716 17.0545 14.4735 16.9854C14.9887 16.9271 15.461 16.6871 15.7981 16.3343C16.622 16.6816 17.5985 16.4338 18.1907 15.6358L19.2723 14.1196C19.9938 13.1517 19.8571 11.7242 18.9659 10.9383L14.2667 6.79207L14.5941 6.43657C14.9603 6.03891 14.9603 5.39451 14.5941 4.99711C14.2279 4.59945 13.6347 4.59945 13.2683 4.99711L11.1641 7.27917C10.9062 7.56333 10.457 7.56333 10.1992 7.27917C10.0698 7.13997 9.99902 6.95442 9.99902 6.75708C9.99902 6.55825 10.0698 6.37265 10.2053 6.22565L13.5612 2.50866C13.8663 2.17594 14.285 2.01032 14.6916 2.08327C17.0256 2.47431 18.6057 4.74378 18.6213 4.76753C18.742 4.94375 18.9051 5.06212 19.0838 5.12277H21.25V12.5491C21.25 13.2985 21.8098 13.9084 22.4648 13.9084L25 13.9463V3.0931L19.7695 3.05069ZM1.875 12.5892C1.5332 12.5892 1.25 12.2819 1.25 11.911C1.25 11.5345 1.5332 11.2328 1.875 11.2328C2.2168 11.2328 2.5 11.5373 2.5 11.9148C2.5 12.2838 2.2168 12.5892 1.875 12.5892ZM23.125 12.5892C22.7832 12.5892 22.5 12.2819 22.5 11.911C22.5 11.5345 22.7832 11.2328 23.125 11.2328C23.4668 11.2328 23.75 11.5347 23.75 11.911C23.75 12.2838 23.4688 12.5892 23.125 12.5892Z" fill="#008060"/>
</svg>
