<svg width="36" height="36" viewBox="0 0 36 36" fill="none" xmlns="http://www.w3.org/2000/svg">
<path d="M26.8956 9.39159C26.876 9.25021 26.751 9.17175 26.6473 9.16321C26.5443 9.15466 24.5277 9.12436 24.5277 9.12436C24.5277 9.12436 22.8411 7.50548 22.6745 7.3408C22.5079 7.17611 22.1825 7.22583 22.056 7.26312C22.0544 7.26389 21.7392 7.36022 21.2087 7.52257C21.1199 7.23826 20.9895 6.88869 20.8032 6.53757C20.2028 5.40498 19.3233 4.80605 18.2608 4.8045C18.2592 4.8045 18.2584 4.8045 18.2568 4.8045C18.183 4.8045 18.1099 4.81149 18.036 4.8177C18.0046 4.78042 17.9731 4.74391 17.9401 4.70817C17.4772 4.21878 16.8838 3.9803 16.1726 4.00127C14.8004 4.04011 13.4337 5.01968 12.3255 6.75974C11.5459 7.984 10.9525 9.52209 10.7843 10.713C9.20858 11.1954 8.10673 11.5325 8.08237 11.5403C7.28702 11.7873 7.26187 11.8114 7.15813 12.5524C7.08111 13.1125 5 29.0186 5 29.0186L22.4403 32L29.9992 30.1426C29.9992 30.1426 26.9153 9.53297 26.8956 9.39159ZM20.3356 7.7898C19.934 7.91253 19.4774 8.05236 18.9822 8.20384C18.972 7.51714 18.8895 6.56165 18.5657 5.7359C19.607 5.93088 20.1195 7.09532 20.3356 7.7898ZM18.0698 8.48349C17.1558 8.76315 16.1584 9.06843 15.158 9.3745C15.4393 8.30949 15.973 7.24913 16.6284 6.55388C16.8721 6.29521 17.2131 6.00701 17.6171 5.84232C17.9967 6.62535 18.0792 7.73387 18.0698 8.48349ZM16.2001 4.90393C16.5223 4.89694 16.7935 4.96685 17.0253 5.11755C16.6544 5.30787 16.296 5.58131 15.9596 5.93787C15.088 6.86228 14.42 8.29706 14.1536 9.68134C13.3229 9.93536 12.5102 10.1847 11.762 10.4131C12.2344 8.23414 14.0821 4.96452 16.2001 4.90393Z" fill="#95BF47"/>
<path d="M26.6481 9.164C26.5451 9.15545 24.5284 9.12516 24.5284 9.12516C24.5284 9.12516 22.8419 7.50628 22.6752 7.34159C22.6132 7.28022 22.5291 7.24837 22.441 7.23517L22.4418 31.9992L30 30.1427C30 30.1427 26.916 9.53376 26.8964 9.39238C26.8768 9.251 26.751 9.17254 26.6481 9.164Z" fill="#5E8E3E"/>
<path d="M18.2513 13.0053L17.3734 16.2517C17.3734 16.2517 16.3942 15.8112 15.2334 15.8834C13.5311 15.9899 13.513 17.051 13.5303 17.3174C13.623 18.7693 17.4874 19.0862 17.7043 22.4871C17.8748 25.1625 16.2684 26.9927 13.9539 27.1371C11.1757 27.3104 9.6463 25.6907 9.6463 25.6907L10.235 23.2158C10.235 23.2158 11.7746 24.3639 13.0069 24.287C13.8117 24.2365 14.0993 23.5894 14.0702 23.1319C13.9492 21.238 10.8024 21.3499 10.6035 18.238C10.4361 15.6193 12.1762 12.9657 16.0154 12.7265C17.4945 12.6325 18.2513 13.0053 18.2513 13.0053Z" fill="white"/>
</svg>
